<svg width="102" height="19" viewBox="0 0 102 19" fill="none" xmlns="http://www.w3.org/2000/svg">
<path d="M9.20322 1.06139C9.52173 -0.353797 11.5384 -0.353797 11.8569 1.06139L13.778 9.59711C13.8386 9.8665 13.9798 10.111 14.1828 10.2982L20.6144 16.2298C21.6807 17.2133 20.6724 18.9597 19.2876 18.528L10.9348 15.9239C10.6712 15.8417 10.3889 15.8417 10.1253 15.9239L1.77253 18.528C0.387688 18.9597 -0.620624 17.2133 0.445707 16.2298L6.8773 10.2982C7.08028 10.111 7.22147 9.8665 7.28209 9.59712L9.20322 1.06139Z" fill="black"/>
<path d="M30.145 16.3619V4.58679H25.7446V1.43311H38.4593V4.58679H33.9531V16.3619H30.145Z" fill="black"/>
<path d="M39.648 16.3619V1.43311H43.2233V7.20804H43.3926C43.6887 6.49812 44.1471 5.97251 44.7677 5.6312C45.4024 5.27624 46.1076 5.09876 46.8833 5.09876C47.4474 5.09876 47.9693 5.18067 48.4488 5.3445C48.9424 5.50833 49.3726 5.77455 49.7393 6.14316C50.106 6.49812 50.3881 6.96913 50.5856 7.55618C50.7971 8.12958 50.9029 8.82585 50.9029 9.64499V16.3619H47.3275V10.4027C47.3275 9.84294 47.257 9.37876 47.116 9.01015C46.9891 8.64154 46.7845 8.36849 46.5025 8.19101C46.2345 7.99988 45.8748 7.90431 45.4235 7.90431C44.944 7.90431 44.542 8.01353 44.2176 8.23197C43.8933 8.45041 43.6464 8.73028 43.4772 9.07159C43.3079 9.4129 43.2233 9.77468 43.2233 10.1569V16.3619H39.648Z" fill="black"/>
<path d="M56.9022 16.5667C56.2252 16.5667 55.6117 16.4507 55.0617 16.2186C54.5116 15.9728 54.0321 15.6111 53.6231 15.1332C53.2282 14.6554 52.9249 14.0615 52.7134 13.3516C52.5018 12.628 52.396 11.7884 52.396 10.8327C52.396 9.54942 52.5794 8.48454 52.9461 7.63809C53.3269 6.778 53.8558 6.14316 54.5328 5.73359C55.2098 5.31037 55.9996 5.09876 56.9022 5.09876C57.4805 5.09876 57.9953 5.18067 58.4466 5.3445C58.912 5.50833 59.3069 5.74042 59.6313 6.04077C59.9698 6.34112 60.2307 6.69608 60.4141 7.10565H60.6045L60.7314 5.30354H64.1798V16.3619H60.6045V14.5598H60.4141C60.1461 15.1605 59.7089 15.6452 59.1024 16.0138C58.496 16.3824 57.7626 16.5667 56.9022 16.5667ZM58.2985 13.7816C58.8345 13.7816 59.2646 13.6656 59.589 13.4335C59.9134 13.1878 60.1532 12.8806 60.3083 12.512C60.4776 12.1297 60.5622 11.7338 60.5622 11.3242V10.3413C60.5622 9.91803 60.4776 9.52211 60.3083 9.1535C60.1532 8.77123 59.9134 8.46406 59.589 8.23197C59.2646 7.99988 58.8345 7.88383 58.2985 7.88383C57.8472 7.88383 57.4523 7.98623 57.1138 8.19101C56.7753 8.3958 56.5073 8.71663 56.3099 9.1535C56.1265 9.57672 56.0348 10.1365 56.0348 10.8327C56.0348 11.5154 56.1265 12.0751 56.3099 12.512C56.5073 12.9489 56.7753 13.2697 57.1138 13.4745C57.4523 13.6793 57.8472 13.7816 58.2985 13.7816Z" fill="black"/>
<path d="M66.4134 16.3619V5.30354H69.8618L69.9888 7.20804H70.158C70.4542 6.49812 70.9126 5.97251 71.5331 5.6312C72.1678 5.27624 72.873 5.09876 73.6487 5.09876C74.2129 5.09876 74.7347 5.18067 75.2142 5.3445C75.7079 5.50833 76.1381 5.77455 76.5048 6.14316C76.8715 6.49812 77.1535 6.96913 77.351 7.55618C77.5625 8.12958 77.6683 8.82585 77.6683 9.64499V16.3619H74.093V10.4027C74.093 9.84294 74.0225 9.37876 73.8814 9.01015C73.7545 8.64154 73.55 8.36849 73.2679 8.19101C72.9999 7.99988 72.6403 7.90431 72.189 7.90431C71.7094 7.90431 71.3075 8.01353 70.9831 8.23197C70.6587 8.45041 70.4119 8.73028 70.2426 9.07159C70.0734 9.4129 69.9888 9.77468 69.9888 10.1569V16.3619H66.4134Z" fill="black"/>
<path d="M84.9582 16.5667C84.0837 16.5667 83.2939 16.4438 82.5887 16.1981C81.8835 15.9387 81.27 15.5633 80.7481 15.0718C80.2404 14.5667 79.8455 13.9591 79.5634 13.2492C79.2954 12.5393 79.1615 11.7338 79.1615 10.8327C79.1615 9.68594 79.3871 8.68932 79.8385 7.84288C80.2898 6.98278 80.9456 6.31382 81.8059 5.83598C82.6804 5.3445 83.7311 5.09876 84.9582 5.09876C85.8326 5.09876 86.6224 5.22845 87.3276 5.48785C88.0328 5.73359 88.6393 6.10903 89.147 6.61417C89.6548 7.10565 90.0426 7.70635 90.3106 8.41628C90.5927 9.11254 90.7337 9.91803 90.7337 10.8327C90.7337 11.9659 90.508 12.9625 90.0567 13.8226C89.6054 14.6827 88.9496 15.3585 88.0892 15.85C87.2289 16.3278 86.1852 16.5667 84.9582 16.5667ZM84.9582 13.7612C85.3954 13.7612 85.7762 13.6588 86.1006 13.454C86.425 13.2492 86.6788 12.9284 86.8622 12.4915C87.0455 12.0546 87.1372 11.5017 87.1372 10.8327C87.1372 10.3276 87.0808 9.89073 86.968 9.52211C86.8692 9.13985 86.7211 8.83267 86.5237 8.60058C86.3403 8.35484 86.1147 8.17736 85.8467 8.06814C85.5928 7.94527 85.2967 7.88383 84.9582 7.88383C84.5209 7.88383 84.1331 7.99305 83.7946 8.21149C83.4702 8.41628 83.2163 8.7371 83.033 9.17398C82.8637 9.5972 82.7791 10.1501 82.7791 10.8327C82.7791 11.3379 82.8285 11.7816 82.9272 12.1638C83.0259 12.5325 83.167 12.8396 83.3503 13.0854C83.5478 13.3175 83.7805 13.4881 84.0485 13.5973C84.3305 13.7066 84.6338 13.7612 84.9582 13.7612Z" fill="black"/>
<path d="M96.8168 16.5667C95.7731 16.5667 94.8634 16.4097 94.0877 16.0957C93.3261 15.7817 92.7338 15.3448 92.3106 14.7851C91.9016 14.2253 91.6971 13.5769 91.6971 12.8396H95.2301C95.2443 13.3038 95.4064 13.6383 95.7167 13.8431C96.027 14.0479 96.429 14.1503 96.9226 14.1503C97.4022 14.1503 97.7618 14.0683 98.0016 13.9045C98.2413 13.7407 98.3612 13.5154 98.3612 13.2287C98.3612 12.9693 98.2977 12.7782 98.1708 12.6553C98.0439 12.5325 97.8323 12.4369 97.5361 12.3686C97.2541 12.2867 96.8733 12.2116 96.3937 12.1434C95.3923 12.0068 94.5602 11.8157 93.8973 11.57C93.2486 11.3106 92.769 10.9556 92.4587 10.5051C92.1484 10.0409 91.9933 9.44703 91.9933 8.72345C91.9933 7.99988 92.1978 7.36504 92.6068 6.81895C93.0158 6.27286 93.5941 5.84964 94.3416 5.54928C95.0891 5.24893 95.9636 5.09876 96.9649 5.09876C97.9099 5.09876 98.735 5.24893 99.4402 5.54928C100.159 5.83598 100.717 6.24555 101.111 6.77799C101.52 7.29678 101.739 7.91114 101.767 8.62106H98.2554C98.2554 8.36167 98.199 8.15005 98.0862 7.98623C97.9734 7.8224 97.8112 7.70635 97.5996 7.63809C97.4022 7.55618 97.1553 7.51522 96.8591 7.51522C96.4642 7.51522 96.1469 7.59714 95.9071 7.76096C95.6815 7.91114 95.5686 8.12958 95.5686 8.41628C95.5686 8.64836 95.6392 8.83267 95.7802 8.96919C95.9353 9.09207 96.1822 9.19446 96.5207 9.27637C96.8591 9.35829 97.3105 9.43337 97.8746 9.50164C98.5939 9.5972 99.2145 9.7269 99.7363 9.89073C100.258 10.0546 100.681 10.273 101.006 10.546C101.344 10.8191 101.591 11.1536 101.746 11.5495C101.915 11.9318 102 12.3891 102 12.9215C102 14.082 101.528 14.983 100.583 15.6247C99.6376 16.2527 98.3824 16.5667 96.8168 16.5667Z" fill="black"/>
</svg>
